<?xml version="1.0" standalone="no"?>
<!DOCTYPE svg PUBLIC "-//W3C//DTD SVG 20010904//EN"
 "http://www.w3.org/TR/2001/REC-SVG-20010904/DTD/svg10.dtd">
<svg version="1.0" xmlns="http://www.w3.org/2000/svg"
 width="400.000000pt" height="400.000000pt" viewBox="0 0 400.000000 400.000000"
 preserveAspectRatio="xMidYMid meet">

<g transform="translate(0.000000,400.000000) scale(0.100000,-0.100000)"
fill="#000000" stroke="none">
<path d="M1805 3134 c-201 -36 -467 -156 -578 -263 -80 -75 -172 -229 -192
-319 -21 -100 -11 -167 41 -278 28 -59 51 -88 134 -167 55 -52 100 -100 100
-106 0 -8 -61 -11 -198 -11 l-198 0 -34 35 -34 35 -23 -22 c-13 -12 -23 -29
-23 -37 0 -18 68 -107 87 -115 7 -3 185 -2 397 1 l384 6 -60 37 c-88 53 -198
166 -241 247 -53 102 -67 161 -67 283 0 173 45 276 175 398 90 85 196 147 311
183 94 30 299 32 389 4 33 -10 66 -19 72 -21 24 -4 166 -85 204 -115 55 -43
131 -143 173 -226 83 -165 87 -319 13 -471 -35 -71 -146 -196 -234 -262 -32
-24 -62 -48 -68 -53 -6 -4 14 -6 45 -3 30 2 209 5 397 5 l342 1 41 55 c22 30
40 58 40 62 0 4 -11 22 -25 38 -24 28 -26 29 -38 11 -39 -59 -26 -56 -249 -63
-200 -6 -208 -5 -208 13 0 10 16 30 35 43 68 46 157 152 193 230 31 67 34 83
34 166 1 151 -56 278 -174 391 -242 231 -630 347 -963 288z"/>
<path d="M1834 2782 c-65 -42 -141 -91 -167 -108 l-48 -31 48 -30 c182 -114
288 -176 298 -176 14 0 334 205 335 214 0 10 -147 99 -165 99 -9 0 -47 -18
-83 -40 -99 -59 -96 -55 -69 -69 21 -11 29 -10 65 13 58 36 112 34 112 -5 0
-18 -21 -34 -120 -92 l-45 -26 -80 49 c-139 86 -137 82 -64 136 43 31 59 37
95 35 30 -1 56 5 83 21 l39 22 -52 33 c-28 18 -54 33 -57 33 -3 0 -59 -35
-125 -78z"/>
<path d="M2224 2514 c-60 -37 -135 -82 -166 -101 l-58 -35 0 -190 0 -189 23
12 c71 37 77 47 77 114 0 69 12 87 80 115 42 17 60 1 60 -57 0 -40 1 -43 16
-29 8 9 20 16 25 16 6 0 7 4 4 10 -3 5 0 7 8 4 30 -11 37 23 43 209 4 103 5
187 2 187 -2 0 -54 -30 -114 -66z m4 -140 c3 -38 1 -41 -46 -72 -56 -36 -67
-39 -76 -16 -19 48 1 90 59 123 39 21 60 10 63 -35z"/>
<path d="M1590 2394 l2 -177 26 -24 c14 -13 32 -21 39 -18 8 2 12 1 9 -3 -5
-8 252 -167 259 -160 2 2 6 81 8 176 3 118 1 176 -7 185 -11 14 -319 197 -331
197 -3 0 -5 -79 -5 -176z m160 29 c51 -33 90 -77 90 -100 0 -34 -21 -37 -66
-12 -60 34 -84 60 -84 89 0 44 19 51 60 23z m30 -171 c46 -31 55 -42 55 -67 0
-41 -37 -44 -90 -7 -41 29 -63 68 -52 96 9 23 26 19 87 -22z"/>
<path d="M540 1664 l0 -126 66 4 c58 4 70 8 90 32 30 34 30 38 -1 74 -22 26
-23 31 -10 42 8 7 15 25 15 41 0 40 -32 59 -102 59 l-58 0 0 -126z m104 90 c9
-3 16 -16 16 -29 0 -23 -17 -35 -51 -35 -15 0 -19 7 -19 35 0 36 15 44 54 29z
m13 -116 c28 -23 10 -55 -35 -64 l-32 -6 0 47 c0 46 0 47 27 40 16 -4 34 -11
40 -17z"/>
<path d="M802 1753 c-6 -21 -22 -69 -37 -108 -40 -107 -40 -105 -18 -105 14 0
25 12 36 40 14 36 19 40 51 40 32 0 36 -3 47 -40 10 -34 16 -40 40 -40 l27 0
-30 83 c-16 45 -36 100 -42 122 -10 31 -19 41 -38 43 -22 3 -27 -2 -36 -35z
m57 -95 c1 -5 -10 -8 -24 -8 -28 0 -31 15 -13 56 l12 26 12 -33 c7 -19 13 -37
13 -41z"/>
<path d="M980 1665 c0 -118 1 -125 20 -125 17 0 19 8 22 87 l3 88 50 -87 c40
-70 55 -88 73 -88 22 0 22 2 22 125 l0 125 -25 0 c-24 0 -24 -1 -22 -84 2 -47
0 -83 -4 -80 -4 2 -28 40 -53 84 -33 57 -52 80 -66 80 -19 0 -20 -7 -20 -125z"/>
<path d="M1240 1666 c0 -119 1 -126 20 -126 19 0 20 7 20 92 l0 93 54 -90 c37
-62 60 -91 75 -93 20 -3 21 0 21 122 0 124 0 126 -22 126 -22 0 -23 -3 -21
-80 1 -44 -1 -80 -5 -80 -4 0 -28 35 -52 78 -32 55 -52 78 -68 80 -22 3 -22 2
-22 -122z"/>
<path d="M1512 1673 c-23 -65 -42 -121 -42 -125 0 -5 9 -8 20 -8 14 0 22 11
30 40 10 38 13 40 49 40 36 0 39 -2 50 -40 10 -33 16 -40 36 -40 14 0 25 2 25
4 0 2 -11 37 -26 78 -14 40 -32 94 -41 121 -12 36 -21 47 -37 47 -19 0 -28
-17 -64 -117z m72 35 c11 -44 7 -58 -18 -58 -23 0 -23 2 -14 40 12 45 23 51
32 18z"/>
<path d="M1720 1665 l0 -125 25 0 c23 0 25 3 25 50 0 28 4 50 9 50 5 0 23 -22
41 -50 24 -37 38 -50 56 -50 l25 0 -35 52 -35 51 24 23 c17 16 25 34 25 58 0
48 -28 66 -102 66 l-58 0 0 -125z m104 89 c19 -7 21 -45 4 -62 -7 -7 -22 -12
-35 -12 -20 0 -23 5 -23 40 0 41 13 50 54 34z"/>
<path d="M1940 1665 c0 -118 1 -125 20 -125 19 0 20 7 20 125 0 118 -1 125
-20 125 -19 0 -20 -7 -20 -125z"/>
<path d="M2205 1778 c-2 -7 -20 -56 -39 -108 -18 -52 -37 -103 -41 -113 -6
-15 -4 -18 15 -15 16 2 27 14 35 38 11 32 15 35 50 35 34 0 38 -3 49 -35 9
-28 17 -36 40 -38 24 -3 28 -1 21 15 -4 10 -23 65 -44 123 -30 87 -40 106 -59
108 -12 2 -24 -3 -27 -10z m45 -115 c0 -7 -11 -13 -25 -13 -28 0 -30 4 -13 51
l12 34 12 -30 c7 -17 13 -36 14 -42z"/>
<path d="M2380 1666 l0 -126 25 0 c24 0 25 2 25 73 l0 72 25 -60 c14 -33 25
-66 25 -72 0 -7 11 -13 24 -13 20 0 26 8 40 58 26 93 36 97 36 14 0 -70 1 -73
22 -70 22 3 23 6 23 123 l0 120 -25 3 c-24 3 -28 -3 -60 -105 -18 -59 -35
-103 -37 -98 -67 195 -70 200 -97 203 l-26 3 0 -125z"/>
<path d="M2700 1666 l0 -126 25 0 c24 0 25 2 25 73 l1 72 28 -70 c42 -104 69
-98 97 20 1 6 7 21 12 35 9 20 11 11 11 -52 1 -77 1 -78 26 -78 l26 0 -2 125
-1 125 -27 0 c-25 0 -29 -6 -60 -105 -19 -58 -35 -104 -37 -102 -2 1 -18 48
-37 102 -30 91 -36 100 -60 103 l-27 3 0 -125z"/>
<path d="M3036 1683 c-53 -151 -52 -143 -28 -143 16 0 24 10 33 40 11 37 15
40 49 40 34 0 38 -3 50 -40 10 -32 18 -40 37 -40 12 0 23 4 23 9 0 5 -16 53
-36 107 -20 55 -38 107 -41 117 -3 9 -15 17 -27 17 -19 0 -27 -15 -60 -107z
m68 23 c3 -13 9 -31 12 -40 5 -12 0 -16 -24 -16 l-29 0 10 40 c13 46 22 51 31
16z"/>
<path d="M3250 1665 c0 -118 1 -125 20 -125 19 0 20 7 20 92 l0 92 53 -89 c38
-65 59 -91 75 -93 22 -3 22 -2 22 122 0 119 -1 126 -20 126 -17 0 -19 -8 -22
-87 l-3 -88 -53 88 c-38 61 -59 87 -73 87 -18 0 -19 -8 -19 -125z"/>
<path d="M554 1467 c-3 -8 -4 -43 -2 -78 2 -49 7 -64 18 -64 12 0 15 15 15 74
0 51 -4 76 -12 78 -7 3 -15 -2 -19 -10z"/>
<path d="M627 1473 c-3 -5 -4 -39 -4 -78 2 -55 5 -70 17 -70 11 0 15 12 15 48
0 48 0 48 17 25 48 -64 60 -78 69 -72 5 3 9 39 9 80 0 59 -3 74 -15 74 -11 0
-15 -12 -16 -47 0 -41 -2 -45 -12 -29 -22 34 -59 76 -67 76 -5 0 -11 -3 -13
-7z"/>
<path d="M797 1474 c-16 -16 -5 -50 25 -81 28 -29 29 -33 14 -39 -11 -4 -21
-1 -27 7 -7 11 -10 12 -21 1 -11 -11 -9 -16 6 -28 26 -19 50 -18 68 4 21 23
14 53 -16 75 -32 23 -33 39 -3 35 14 -2 22 2 22 12 0 16 -55 27 -68 14z"/>
<path d="M900 1465 c0 -8 4 -15 10 -15 5 0 10 -28 12 -62 2 -38 8 -63 16 -66
9 -3 12 14 12 62 0 52 3 66 15 66 8 0 15 7 15 15 0 11 -11 15 -40 15 -29 0
-40 -4 -40 -15z"/>
<path d="M1010 1400 c0 -47 4 -80 10 -80 6 0 10 33 10 80 0 47 -4 80 -10 80
-6 0 -10 -33 -10 -80z"/>
<path d="M1060 1465 c0 -8 7 -15 15 -15 12 0 15 -14 15 -66 0 -48 3 -65 13
-62 7 3 13 28 15 64 2 39 8 62 18 67 24 13 6 27 -37 27 -28 0 -39 -4 -39 -15z"/>
<path d="M1170 1416 c0 -86 27 -114 81 -86 16 9 19 22 19 80 0 56 -3 70 -15
70 -12 0 -15 -14 -15 -65 0 -58 -2 -65 -20 -65 -18 0 -20 7 -20 65 0 51 -3 65
-15 65 -12 0 -15 -14 -15 -64z"/>
<path d="M1300 1465 c0 -8 7 -15 15 -15 12 0 15 -14 15 -65 0 -51 3 -65 15
-65 12 0 15 14 15 64 0 49 4 65 16 70 27 10 5 26 -37 26 -28 0 -39 -4 -39 -15z"/>
<path d="M1414 1466 c-3 -7 -4 -42 -2 -77 l3 -64 43 -3 c33 -2 42 0 42 12 0
10 -9 16 -25 16 -18 0 -25 5 -25 20 0 15 7 20 25 20 16 0 25 6 25 15 0 9 -9
15 -24 15 -13 0 -26 7 -30 15 -4 11 2 15 24 15 20 0 30 5 30 15 0 20 -78 21
-86 1z"/>
<path d="M1615 1455 c-49 -48 -23 -120 47 -131 72 -12 114 70 67 130 -28 35
-80 36 -114 1z m98 -26 c14 -23 1 -67 -23 -74 -49 -15 -85 29 -60 75 14 25 67
25 83 -1z"/>
<path d="M1790 1400 c0 -47 4 -80 10 -80 6 0 10 16 10 35 0 31 3 35 25 35 16
0 25 6 25 15 0 9 -9 15 -25 15 -16 0 -25 6 -25 15 0 9 9 15 25 15 16 0 25 6
25 15 0 10 -11 15 -35 15 l-35 0 0 -80z"/>
<path d="M1945 1469 c-4 -6 2 -13 14 -16 19 -5 21 -13 21 -70 0 -47 3 -64 13
-60 8 2 12 25 12 65 0 43 4 62 13 62 6 0 12 7 12 15 0 18 -75 22 -85 4z"/>
<path d="M2060 1400 l0 -80 40 0 c29 0 40 4 40 15 0 9 -9 15 -25 15 -18 0 -25
5 -25 20 0 15 7 20 25 20 16 0 25 6 25 15 0 9 -9 15 -25 15 -16 0 -25 6 -25
15 0 9 9 15 25 15 16 0 25 6 25 15 0 11 -11 15 -40 15 l-40 0 0 -80z"/>
<path d="M2191 1454 c-59 -75 23 -167 107 -120 20 11 21 14 9 25 -10 8 -17 9
-22 1 -19 -31 -85 5 -85 47 0 34 24 46 75 39 48 -8 61 5 26 24 -37 19 -88 12
-110 -16z"/>
<path d="M2352 1403 c2 -50 7 -78 16 -81 8 -2 12 8 12 32 0 33 2 36 30 36 28
0 30 -3 30 -35 0 -19 5 -35 10 -35 6 0 10 33 10 80 0 44 -4 80 -9 80 -5 0 -11
-12 -13 -27 -2 -22 -9 -29 -30 -31 -25 -3 -28 0 -28 27 0 21 -5 31 -15 31 -13
0 -15 -13 -13 -77z"/>
<path d="M2510 1400 c0 -88 17 -110 22 -28 l3 52 30 -45 c56 -82 65 -79 65 21
0 64 -3 80 -15 80 -11 0 -15 -13 -15 -52 l-1 -53 -32 53 c-45 74 -57 69 -57
-28z"/>
<path d="M2686 1454 c-34 -35 -33 -68 3 -105 33 -32 65 -37 99 -13 32 22 43
57 31 94 -20 56 -88 68 -133 24z m100 -29 c15 -23 15 -27 0 -50 -31 -47 -95
-22 -87 34 4 37 9 41 41 41 20 0 35 -8 46 -25z"/>
<path d="M2860 1400 l0 -80 35 0 c24 0 35 5 35 15 0 8 -9 15 -20 15 -18 0 -20
7 -20 65 0 51 -3 65 -15 65 -12 0 -15 -16 -15 -80z"/>
<path d="M2971 1454 c-62 -79 44 -180 114 -109 32 31 34 86 5 115 -31 31 -93
27 -119 -6z m105 -29 c15 -23 15 -27 0 -50 -9 -14 -26 -25 -38 -25 -25 0 -58
27 -58 47 0 54 66 74 96 28z"/>
<path d="M3161 1454 c-44 -57 -5 -134 67 -134 28 0 72 38 72 61 0 17 -6 20
-37 17 -21 -2 -36 -7 -33 -13 3 -5 11 -9 18 -9 23 3 6 -21 -17 -24 -29 -4 -61
24 -61 53 0 34 24 48 69 41 44 -7 63 7 32 23 -37 20 -88 13 -110 -15z"/>
<path d="M3336 1458 c4 -13 13 -32 20 -43 8 -11 14 -37 14 -58 0 -55 23 -43
32 16 3 25 13 56 22 69 19 27 20 38 3 38 -7 0 -20 -12 -29 -27 l-16 -27 -13
27 c-15 34 -44 38 -33 5z"/>
<path d="M555 1260 c9 -14 2885 -14 2885 0 0 7 -489 10 -1446 10 -961 0 -1443
-3 -1439 -10z"/>
<path d="M1149 1156 c-14 -7 -25 -22 -27 -37 -3 -26 11 -42 82 -92 32 -22 35
-63 6 -72 -23 -7 -54 7 -74 37 -15 21 -15 21 -13 -9 2 -28 6 -32 39 -37 69
-11 120 28 97 76 -6 13 -30 35 -55 50 -51 32 -63 53 -41 75 20 20 53 9 72 -25
l14 -27 1 35 c0 34 -1 35 -39 36 -21 1 -50 -3 -62 -10z"/>
<path d="M2192 1163 c-9 -3 -10 -9 -2 -17 5 -8 9 -52 7 -104 -2 -86 -1 -91 20
-95 19 -3 21 -1 13 14 -24 44 0 127 34 116 15 -5 20 -105 7 -121 -9 -10 -4
-13 18 -12 26 1 29 4 26 26 -2 14 -7 47 -10 74 l-7 48 -39 -5 -39 -5 0 44 c0
44 -3 47 -28 37z"/>
<path d="M2810 1160 c-10 -6 -11 -10 -2 -10 7 0 12 -13 12 -30 0 -22 -5 -30
-17 -30 -15 0 -15 -1 1 -13 23 -17 19 -110 -5 -115 -43 -8 -66 72 -32 110 14
16 14 18 1 18 -35 0 -60 -78 -39 -118 10 -18 20 -21 71 -21 56 1 58 2 51 23
-4 11 -6 60 -5 109 2 89 -3 98 -36 77z"/>
<path d="M1986 1087 c-20 -43 -36 -82 -36 -86 0 -5 -8 -19 -19 -32 l-18 -24
28 -1 c22 -1 27 2 19 11 -7 9 -7 21 1 39 10 21 19 26 50 26 41 0 65 -25 56
-59 -3 -12 3 -16 27 -16 l31 0 -35 75 c-20 41 -43 91 -52 110 l-16 35 -36 -78z
m64 -54 c0 -2 -16 -3 -35 -3 -40 0 -40 0 -18 47 l16 35 19 -38 c10 -21 18 -39
18 -41z"/>
<path d="M1336 1107 c-12 -13 -15 -22 -8 -26 6 -4 12 -33 14 -66 2 -49 6 -60
22 -63 10 -2 23 2 30 9 8 9 7 11 -6 6 -20 -7 -28 11 -28 69 0 35 4 44 17 44
15 0 15 1 1 13 -9 6 -17 17 -19 22 -2 6 -12 2 -23 -8z"/>
<path d="M1480 1090 c-28 -7 -41 -40 -16 -40 9 0 16 7 16 15 0 8 9 15 20 15
34 0 24 -34 -15 -53 -28 -14 -35 -22 -35 -47 0 -29 0 -29 56 -28 30 1 58 6 61
11 3 6 1 7 -5 3 -7 -4 -12 13 -14 55 -3 68 -17 82 -68 69z m28 -121 c-36 -23
-52 16 -17 44 l24 19 3 -27 c2 -16 -2 -32 -10 -36z"/>
<path d="M1617 1082 c7 -4 24 -34 38 -67 31 -69 28 -105 -10 -105 -16 0 -25
-6 -25 -15 0 -23 38 -18 54 8 8 12 27 54 42 92 15 39 31 76 37 83 7 8 5 12 -7
12 -9 0 -16 -8 -16 -17 -1 -10 -9 -33 -19 -51 l-17 -33 -18 39 c-10 22 -15 45
-12 51 5 7 -5 11 -26 11 -19 0 -28 -4 -21 -8z"/>
<path d="M2392 1077 c-18 -21 -21 -85 -5 -107 21 -30 80 -24 102 10 15 25 15
25 -5 8 -26 -23 -47 -23 -67 0 -33 36 -22 52 34 52 51 0 51 0 37 23 -9 12 -24
24 -34 25 -15 3 -17 1 -6 -9 19 -21 14 -29 -18 -29 -33 0 -39 14 -12 29 15 9
15 10 1 11 -9 0 -21 -6 -27 -13z"/>
<path d="M2562 1078 c-16 -16 -15 -28 3 -28 8 0 15 6 15 14 0 8 6 17 13 19 8
4 7 6 -3 6 -9 1 -21 -4 -28 -11z"/>
<path d="M2618 1078 c19 -19 14 -37 -12 -44 -32 -8 -59 -38 -54 -61 3 -15 14
-18 61 -20 31 -1 59 3 63 8 3 5 0 9 -5 9 -6 0 -11 20 -11 44 0 58 -8 76 -33
76 -16 0 -18 -3 -9 -12z m12 -72 c0 -13 -7 -29 -16 -36 -12 -11 -18 -11 -31 2
-14 14 -13 18 6 37 27 27 41 27 41 -3z"/>
</g>
</svg>
